<?xml version="1.0" encoding="utf-8"?>
<!-- Generator: Adobe Illustrator 24.3.0, SVG Export Plug-In . SVG Version: 6.00 Build 0)  -->
<svg version="1.1" id="bold" xmlns="http://www.w3.org/2000/svg" xmlns:xlink="http://www.w3.org/1999/xlink" x="0px" y="0px"
	 viewBox="0 0 30 30" style="enable-background:new 0 0 30 30;" xml:space="preserve">
<style type="text/css">
	.st0{fill:#0023A0;}
	.st1{fill:none;stroke:#FFFFFF;stroke-width:3;stroke-linecap:round;stroke-linejoin:round;stroke-miterlimit:10;}
	.st2{fill:#FF0068;}
</style>
<path d="M-164.3,123.1h-16v-64c0-70.6-57.4-128-128-128s-128,57.4-128,128v64h-16c-26.5,0-48,21.5-48,48v224c0,26.5,21.5,48,48,48
	h288c26.5,0,48-21.5,48-48v-224C-116.3,144.7-137.9,123.1-164.3,123.1z M-393.7,59.1c0-47.1,38.3-85.3,85.3-85.3S-223,12.1-223,59.1
	v64h-170.7V59.1z M-287,287.9v48.6c0,11.8-9.5,21.3-21.3,21.3c-11.8,0-21.3-9.6-21.3-21.3v-48.6c-12.7-7.4-21.3-21-21.3-36.7
	c0-23.5,19.1-42.7,42.7-42.7c23.5,0,42.7,19.1,42.7,42.7C-265.7,266.9-274.3,280.5-287,287.9z"/>
<path class="st0" d="M23.2,11.4h-0.9V7.8c0-4-3.3-7.2-7.2-7.2S7.8,3.8,7.8,7.8v3.6H6.8c-1.5,0-2.7,1.2-2.7,2.7v12.7
	c0,1.5,1.2,2.7,2.7,2.7h16.3c1.5,0,2.7-1.2,2.7-2.7V14.1C25.9,12.6,24.7,11.4,23.2,11.4z M10.2,7.8c0-2.7,2.2-4.8,4.8-4.8
	s4.8,2.2,4.8,4.8v3.6h-9.7V7.8z"/>
<path class="st0" d="M-9.2,11.4h-0.9V7.8c0-4-3.3-7.2-7.2-7.2s-7.2,3.3-7.2,7.2v3.6h-0.9c-1.5,0-2.7,1.2-2.7,2.7v12.7
	c0,1.5,1.2,2.7,2.7,2.7h16.3c1.5,0,2.7-1.2,2.7-2.7V14.1C-6.4,12.6-7.7,11.4-9.2,11.4z M-22.2,7.8c0-2.7,2.2-4.8,4.8-4.8
	s4.8,2.2,4.8,4.8v3.6h-9.7V7.8z M-16.1,20.7v2.8c0,0.7-0.5,1.2-1.2,1.2s-1.2-0.5-1.2-1.2v-2.8c-0.7-0.4-1.2-1.2-1.2-2.1
	c0-1.3,1.1-2.4,2.4-2.4s2.4,1.1,2.4,2.4C-14.9,19.5-15.4,20.3-16.1,20.7z"/>
<polyline class="st1" points="10.2,19.6 13.3,23.6 19.8,16.8 "/>
<path class="st2" d="M23.2-24.1h-0.9v-3.6c0-4-3.3-7.2-7.2-7.2s-7.2,3.3-7.2,7.2v3.6H6.8c-1.5,0-2.7,1.2-2.7,2.7v12.7
	C4.1-7.2,5.3-6,6.8-6h16.3c1.5,0,2.7-1.2,2.7-2.7v-12.7C25.9-22.9,24.7-24.1,23.2-24.1z M10.2-27.7c0-2.7,2.2-4.8,4.8-4.8
	s4.8,2.2,4.8,4.8v3.6h-9.7V-27.7z"/>
<path class="st2" d="M-9.2-24.1h-0.9v-3.6c0-4-3.3-7.2-7.2-7.2s-7.2,3.3-7.2,7.2v3.6h-0.9c-1.5,0-2.7,1.2-2.7,2.7v12.7
	c0,1.5,1.2,2.7,2.7,2.7h16.3c1.5,0,2.7-1.2,2.7-2.7v-12.7C-6.4-22.9-7.7-24.1-9.2-24.1z M-22.2-27.7c0-2.7,2.2-4.8,4.8-4.8
	s4.8,2.2,4.8,4.8v3.6h-9.7V-27.7z M-16.1-14.8v2.8c0,0.7-0.5,1.2-1.2,1.2s-1.2-0.5-1.2-1.2v-2.8c-0.7-0.4-1.2-1.2-1.2-2.1
	c0-1.3,1.1-2.4,2.4-2.4s2.4,1.1,2.4,2.4C-14.9-16-15.4-15.2-16.1-14.8z"/>
<polyline class="st1" points="10.2,-15.9 13.3,-11.9 19.8,-18.7 "/>
<path d="M23.2-57.5h-0.9v-3.6c0-4-3.3-7.3-7.2-7.3s-7.2,3.3-7.2,7.3v3.6H6.8c-1.5,0-2.7,1.2-2.7,2.7v12.7c0,1.5,1.2,2.7,2.7,2.7
	h16.3c1.5,0,2.7-1.2,2.7-2.7v-12.7C25.9-56.3,24.7-57.5,23.2-57.5z M10.2-61.1c0-2.7,2.2-4.8,4.8-4.8s4.8,2.2,4.8,4.8v3.6h-9.7
	V-61.1z"/>
<path d="M-9.2-57.5h-0.9v-3.6c0-4-3.3-7.3-7.2-7.3s-7.2,3.3-7.2,7.3v3.6h-0.9c-1.5,0-2.7,1.2-2.7,2.7v12.7c0,1.5,1.2,2.7,2.7,2.7
	h16.3c1.5,0,2.7-1.2,2.7-2.7v-12.7C-6.4-56.3-7.7-57.5-9.2-57.5z M-22.2-61.1c0-2.7,2.2-4.8,4.8-4.8s4.8,2.2,4.8,4.8v3.6h-9.7V-61.1
	z M-16.1-48.1v2.8c0,0.7-0.5,1.2-1.2,1.2s-1.2-0.5-1.2-1.2v-2.8c-0.7-0.4-1.2-1.2-1.2-2.1c0-1.3,1.1-2.4,2.4-2.4s2.4,1.1,2.4,2.4
	C-14.9-49.3-15.4-48.6-16.1-48.1z"/>
<polyline class="st1" points="10.2,-49.3 13.3,-45.2 19.8,-52.1 "/>
</svg>
